# xmcd
#
# Track frame offsets:
#	150
#	24750
#	29769
#	52614
#	74128
#	98185
#	115367
#	132653
#	149855
#	187517
#	190920
#	208645
#	226467
#	246059
#	261081
#	278277
#	293508
#	336192
#
# Disc length: 4683 seconds
#
# Revision: 0
# Processed by: cddbd v1.5.2PL0 Copyright (c) Steve Scherf et al.
# Submitted via: SynApp - FreeCDDB Version: 2.3
#
DISCID=0b124912
DTITLE=Udo Jürgens - Jetzt oder nie
DYEAR=2006
DGENRE=Pop
TTITLE0=Udo Jürgens - In allen Dingen lebt ein Lied [live]/live
TTITLE1=Udo Jürgens - Jetzt oder nie [live]/live
TTITLE2=Udo Jürgens - Bis ans Ende meiner Lieder [live]/live
TTITLE3=Udo Jürgens - Flieg mit mir [live]/live
TTITLE4=Udo Jürgens - Nach all' den Jahren [live]/live
TTITLE5=Udo Jürgens - Verdammt in alle Einsamkeit [live]/live
TTITLE6=Udo Jürgens - Ich will, ich kann - I can, I will
TTITLE7=Udo Jürgens - Dass ich dich liebe - was geht es dich an? [live]/live
TTITLE8=Udo Jürgens - Laster Medley [live]/live
TTITLE9=Udo Jürgens - Laster-Fanfare
TTITLE10=Udo Jürgens - Heute beginnt der Rest deines Lebens [Album Version]/Album Version
TTITLE11=Udo Jürgens - Eine Hand ist keine Faust
TTITLE12=Udo Jürgens - Solang mich deine Liebe trägt
TTITLE13=Udo Jürgens - Weichei
TTITLE14=Udo Jürgens - Es lebe das Laster [live]/live
TTITLE15=Udo Jürgens - Was wichtig ist
TTITLE16=Udo Jürgens - 5 Minuten vor 12 [live]/live
TTITLE17=Udo Jürgens - Ein ehrenwertes Haus [live]/live
EXTD=
EXTT0=
EXTT1=
EXTT2=
EXTT3=
EXTT4=
EXTT5=
EXTT6=
EXTT7=
EXTT8=
EXTT9=
EXTT10=
EXTT11=
EXTT12=
EXTT13=
EXTT14=
EXTT15=
EXTT16=
EXTT17=
PLAYORDER=
